<?xml version="1.0" encoding="utf-8"?><!DOCTYPE svg PUBLIC "-//W3C//DTD SVG 1.1//EN" "http://www.w3.org/Graphics/SVG/1.1/DTD/svg11.dtd"><svg version="1.1" id="图形" xmlns="http://www.w3.org/2000/svg" xmlns:xlink="http://www.w3.org/1999/xlink" x="0px" y="0px" width="26px" height="26px" viewBox="0 0 1000 1024" enable-background="new 15.167 -16.333 26 26" xml:space="preserve"><path fill="#ffffff" d="M1000 69q0 -25 -8.5 -47t-23.5 -40t-35.5 -29.5t-44.5 -15.5v-2h-21h-1h-649q-2 0 -2.5 -0.5t-2.5 -0.5t-3 0.5t-3 0.5h-6v1q-42 2 -78.5 19t-63.5 45.5t-42.5 66t-15.5 79.5t15.5 79t42 65t62 46t76.5 21q7 65 36 121.5t74.5 98.5t104.5 66t126 24q71 0 134 -27 t109.5 -74t73.5 -109.5t27 -133.5q0 -32 -6 -62.5t-17 -58.5q2 0 4.5 0.5t4.5 0.5q28 0 52 -10.5t42 -28.5t28.5 -42.5t10.5 -52.5zM671 217q12 20 7 23t-25 3q-12 0 -33.5 0.5t-32.5 0.5q-16 0 -20.5 13t-4.5 36q0 32 -0.5 51.5t-0.5 42.5q0 26 -3.5 38t-28.5 12 q-18 0 -27 -0.5t-25 -0.5q-27 0 -33.5 -15.5t-6.5 -30.5v-32q0 -13 0.5 -25t0.5 -25v-29q0 -16 -4 -24.5t-19 -8.5q-6 -1 -16.5 -1.5t-21.5 -1t-21 -0.5h-16q-21 0 -25 -13t13 -33q17 -21 36.5 -45.5t38.5 -49.5t36.5 -48.5t32.5 -40.5q27 -30 52 1q15 17 35 44t41 56.5 t40 57t31 45.5z" transform="translate(0, 800) scale(1, -1)"/></svg>
